<?xml version="1.0"?>
<svg version="1.1" xmlns="http://www.w3.org/2000/svg" xmlns:xlink="http://www.w3.org/1999/xlink" width="128" height="128">
    <desc iVinci="yes" version="4.6" gridStep="20" showGrid="no" snapToGrid="no" codePlatform="0"/>
    <g id="Layer1" name="Layer 1" opacity="1">
        <g id="Shape1">
            <desc shapeID="1" type="0" basicInfo-basicType="0" basicInfo-roundedRectRadius="12" basicInfo-polygonSides="6" basicInfo-starPoints="5" bounding="rect(-53.9,-63.9436,107.8,127.887)" text="" font-familyName="" font-pixelSize="20" font-bold="0" font-underline="0" font-alignment="1" strokeStyle="0" markerStart="0" markerEnd="0" shadowEnabled="0" shadowOffsetX="0" shadowOffsetY="2" shadowBlur="4" shadowOpacity="160" blurEnabled="0" blurRadius="4" transform="matrix(1,0,0,1,64.1,63.9436)" pers-center="0,0" pers-size="0,0" pers-start="0,0" pers-end="0,0" locked="0" mesh="" flag=""/>
            <path id="shapePath1" d="M48.9,2.3 C44,4.9 40.6,10 39.6,16.1 L39,20 L28.6,20 C16.8,20 15,20.8 15,26.5 C15,29 14.5,30 13.1,30.5 C10.8,31.2 9.6,34.2 10.5,36.9 C11.1,38.8 13.8,40 17.8,40 L20,40 L20,78.1 C20,120.2 20.1,120.8 26.4,125.3 C29.4,127.5 30.2,127.5 63,127.8 C100.5,128.1 101.1,128 105.7,121.1 C108,117.7 108,117.6 108,78.9 L108,40 L111.4,40 C115.2,40 118,37.9 118,35 C118,33.1 115.5,30 113.9,30 C113.4,30 113,28.2 113,26 C113,20.7 111.4,20 99.1,20 L89,20 L89,17.5 C89,16.1 88.3,13.3 87.5,11.3 C83.8,2.5 78.6,0.0999985 63.9,0 C54.7,0 52.7,0.299999 48.9,2.3 M75.4,12.2 C76.8,13.5 78.2,15.7 78.6,17.2 L79.2,20 L64.6,20 L50,20 L50,17.2 C50,11.8 53.4,10.2 64.7,10.1 C71.8,10 73.2,10.3 75.4,12.2 M98.5,77.7 C98.1,100.9 97.4,116 96.8,116.8 C95.3,118.5 33,118.6 31.2,116.8 C30.3,115.9 30,105.9 30,77.8 L30,40 L64.6,40 L99.3,40 L98.5,77.7 M39.6,51.6 C38.8,53.6 38.8,104.4 39.6,106.4 C40.4,108.6 47.6,108.6 48.4,106.4 C49.2,104.4 49.2,53.6 48.4,51.6 C47.6,49.4 40.4,49.4 39.6,51.6 M59.6,51.6 C58.8,53.6 58.8,104.4 59.6,106.4 C60.4,108.6 67.6,108.6 68.4,106.4 C69.2,104.4 69.2,53.6 68.4,51.6 C67.6,49.4 60.4,49.4 59.6,51.6 M79.6,51.6 C78.8,53.6 78.8,104.4 79.6,106.4 C80.4,108.6 87.6,108.6 88.4,106.4 C89.2,104.4 89.2,53.6 88.4,51.6 C87.6,49.4 80.4,49.4 79.6,51.6 Z" style="stroke:none;fill-rule:nonzero;fill:#000000;fill-opacity:1;"/>
        </g>
    </g>
</svg>
